HIERARCHY
ROOT root
{
	OFFSET	0	13.1	24.9
	CHANNELS 6  Xposition Yposition Zposition Xrotation Yrotation Zrotation
	JOINT spine_1
	{
		OFFSET	0	9.99999	0
		CHANNELS 3  Xrotation Yrotation Zrotation
		JOINT spine_2
		{
			OFFSET	0	112	-10
			CHANNELS 3  Xrotation Yrotation Zrotation
			JOINT spine_3
			{
				OFFSET	0	206.5	19.3
				CHANNELS 3  Xrotation Yrotation Zrotation
				JOINT spine_4
				{
					OFFSET	0	110.4	14.6
					CHANNELS 3  Xrotation Yrotation Zrotation
					JOINT neck_1
					{
						OFFSET	0	71.8	-50.3
						CHANNELS 3  Xrotation Yrotation Zrotation
						JOINT neck_2
						{
							OFFSET	0	86.2	-25.8
							CHANNELS 3  Xrotation Yrotation Zrotation
							JOINT head_ee
							{
								OFFSET	0	179.8	-8.7
								CHANNELS 3  Xrotation Yrotation Zrotation
								End Site
								{
									OFFSET	1	0	0
								}
							}
						}
					}
					JOINT left_clavicle
					{
						OFFSET	-43.2	22.4	-70.8
						CHANNELS 3  Xrotation Yrotation Zrotation
						JOINT left_shoulder
						{
							OFFSET	-93.9	-5.79999	48.7
							CHANNELS 3  Xrotation Yrotation Zrotation
							JOINT left_elbow
							{
								OFFSET	-291.4	-30.8	15.2
								CHANNELS 3  Xrotation Yrotation Zrotation
								JOINT left_lowarm_twist
								{
									OFFSET	-110.7	-3.89999	13.6
									CHANNELS 3  Xrotation Yrotation Zrotation
									JOINT left_hand
									{
										OFFSET	-110.7	-3.89999	13.6
										CHANNELS 3  Xrotation Yrotation Zrotation
										JOINT left_ee
										{
											OFFSET	-80.8	-5.10001	12.1
											CHANNELS 3  Xrotation Yrotation Zrotation
											End Site
											{
												OFFSET	1	0	0
											}
										}
									}
								}
							}
						}
					}
					JOINT right_clavicle
					{
						OFFSET	43.2	22.4	-70.8
						CHANNELS 3  Xrotation Yrotation Zrotation
						JOINT right_shoulder
						{
							OFFSET	93.9	-5.79999	48.7
							CHANNELS 3  Xrotation Yrotation Zrotation
							JOINT right_elbow
							{
								OFFSET	291.4	-30.8	15.2
								CHANNELS 3  Xrotation Yrotation Zrotation
								JOINT right_lowarm_twist
								{
									OFFSET	110.7	-3.89999	13.6
									CHANNELS 3  Xrotation Yrotation Zrotation
									JOINT right_hand
									{
										OFFSET	110.7	-3.89999	13.6
										CHANNELS 3  Xrotation Yrotation Zrotation
										JOINT right_ee
										{
											OFFSET	80.8	-5.10001	12.1
											CHANNELS 3  Xrotation Yrotation Zrotation
											End Site
											{
												OFFSET	1	0	0
											}
										}
									}
								}
							}
						}
					}
				}
			}
		}
	}
	JOINT left_hip
	{
		OFFSET	-82.8	-127.5	0.300001
		CHANNELS 3  Xrotation Yrotation Zrotation
		JOINT left_knee
		{
			OFFSET	-28.2	-396.7	2.2
			CHANNELS 3  Xrotation Yrotation Zrotation
			JOINT left_ankle
			{
				OFFSET	-11.7	-411.3	35.4
				CHANNELS 3  Xrotation Yrotation Zrotation
				JOINT left_toes
				{
					OFFSET	0	-60	-88.6
					CHANNELS 3  Xrotation Yrotation Zrotation
					JOINT left_foot_ee
					{
						OFFSET	-22.5	-16.5	-42.2
						CHANNELS 3  Xrotation Yrotation Zrotation
						End Site
						{
							OFFSET	1	0	0
						}
					}
				}
			}
		}
	}
	JOINT right_hip
	{
		OFFSET	82.8	-127.5	0.300001
		CHANNELS 3  Xrotation Yrotation Zrotation
		JOINT right_knee
		{
			OFFSET	28.2	-396.7	2.2
			CHANNELS 3  Xrotation Yrotation Zrotation
			JOINT right_ankle
			{
				OFFSET	11.7	-411.3	35.4
				CHANNELS 3  Xrotation Yrotation Zrotation
				JOINT right_toes
				{
					OFFSET	0	-60	-88.6
					CHANNELS 3  Xrotation Yrotation Zrotation
					JOINT right_foot_ee
					{
						OFFSET	22.5	-16.5	-42.2
						CHANNELS 3  Xrotation Yrotation Zrotation
						End Site
						{
							OFFSET	1	0	0
						}
					}
				}
			}
		}
	}
}
MOTION
Frames: 9
Frame Time: 0.02
814.115754264 608.795 -1800.07026067 -11.4240890792 11.792090872 5.2015329007 5.56934 -0.112434 -1.04779 5.56995 -0.0455361 -1.05282 5.57017 0.0750921 -1.05113 5.56864 -0.0918467 -1.04979 -17.9257 14.1813 3.20614 -18.7326 25.5452 8.65277 -0.0 0.0 -0.0 10.1506 14.0502 18.6291 -34.9305 -32.1779 36.7421 1.5716 -37.899 0.539627 -52.9903 -4.42611 4.83008 -0.261145 4.42676 0.134603 -0.0 0.0 -0.0 8.81939 -2.35596 -17.1542 -22.2618 20.3011 -60.5893 0.201941 5.71276 -0.0100758 27.4989 -0.136861 3.47657 0.408056 -4.23799 -4.46707 0.0 0.0 0.0 34.0802 -18.9083 -1.10277 -28.4322 0.100915 4.31756 -5.63989 18.1927 0.846944 0.160445 -0.0 -0.0 -0.0 0.0 -0.0 34.4426 41.6843 -9.45489 -42.9587 0.665648 -6.40743 15.2023 -6.22359 2.11966 -3.42147 0.0 0.0 0.0 0.0 0.0 
807.392267154 612.896 -1815.32798619 -12.5433684336 11.0030582135 5.08850819515 6.33303 -0.204542 -0.93134 6.3335 -0.144867 -0.942467 6.33529 -0.0489373 -0.952278 6.33408 -0.198711 -0.932602 -18.9142 14.3492 4.95667 -19.7125 25.045 10.5684 -0.0 0.0 -0.0 10.4571 14.5494 19.1014 -32.5001 -31.4973 32.4495 1.58983 -38.2196 0.550863 -54.0675 -4.55554 4.87854 -0.668091 7.00462 -1.4287 -0.0 0.0 -0.0 8.2242 -5.04376 -15.8719 -23.7809 19.7412 -61.2895 0.273888 7.72667 -0.0184958 26.0761 -0.170873 3.298 0.30061 -5.9471 -4.45313 0.0 0.0 0.0 32.576 -19.4354 -1.12631 -25.4674 0.190822 3.87149 -5.95558 21.4874 0.905114 1.75828 -0.0 -0.0 -0.0 0.0 -0.0 39.9781 40.3285 -11.6379 -42.6952 0.647075 -6.3714 13.4518 -7.48946 1.88812 -3.53341 0.0 0.0 0.0 0.0 0.0 
798.135590851 613.029 -1821.94872307 -12.8980100982 10.0632260468 5.20566533766 6.46056 -0.10468 -1.06354 6.46119 -0.0367961 -1.06804 6.46109 0.068941 -1.06645 6.45951 -0.100341 -1.06396 -20.0851 14.0534 5.72227 -20.8789 24.2184 11.4214 -0.0 0.0 -0.0 10.5537 16.684 18.9344 -28.0064 -32.4855 34.7792 1.44001 -35.4997 0.46097 -54.3239 -4.58648 4.88972 -0.623597 6.9629 -1.15713 -0.0 0.0 -0.0 8.01816 -6.6818 -15.4024 -24.8961 19.3846 -60.2252 0.34402 9.67149 -0.0291043 26.1347 -0.169559 3.30537 0.351638 -6.71692 -5.09826 0.0 0.0 0.0 33.1556 -19.0866 -0.920733 -26.9304 0.149346 4.09217 -5.25055 21.2737 0.79634 1.80869 -0.0 -0.0 -0.0 0.0 -0.0 42.6289 38.7911 -11.8912 -42.545 0.636565 -6.35083 12.7718 -7.01975 1.79744 -4.24602 0.0 0.0 0.0 0.0 0.0 
799.865547547 613.029 -1824.92244068 -12.8711604327 9.37803674754 5.04664801931 6.46056 -0.10468 -1.06354 6.46119 -0.0367961 -1.06804 6.46109 0.068941 -1.06645 6.45951 -0.100341 -1.06396 -20.0851 14.0534 5.72227 -20.8789 24.2184 11.4214 -0.0 0.0 -0.0 10.5537 16.684 18.9344 -28.0064 -32.4855 34.7792 1.44001 -35.4997 0.46097 -54.3239 -4.58648 4.88972 -0.623597 6.9629 -1.15713 -0.0 0.0 -0.0 8.01816 -6.6818 -15.4024 -24.8961 19.3846 -60.2252 0.34402 9.67149 -0.0291043 26.1347 -0.169559 3.30537 0.351638 -6.71692 -5.09826 0.0 0.0 0.0 33.1556 -19.0866 -0.920733 -26.9304 0.149346 4.09217 -5.25055 21.2737 0.79634 1.80869 -0.0 -0.0 -0.0 0.0 -0.0 42.6289 38.7911 -11.8912 -42.545 0.636565 -6.35083 12.7718 -7.01975 1.79744 -4.24602 0.0 0.0 0.0 0.0 0.0 
793.524367401 617.467 -1829.99444143 -13.8659704498 6.69563708542 6.04565644157 6.75333 -0.125537 -1.42252 6.75446 -0.0347738 -1.42762 6.75383 0.0992229 -1.4246 6.75102 -0.126987 -1.42239 -21.4244 14.3024 6.32665 -22.3224 24.5588 12.4402 -0.0 0.0 -0.0 10.6033 15.7112 19.1789 -26.4927 -28.4262 33.2735 1.59618 -38.3306 0.554795 -58.4528 -5.09099 5.05041 -1.29369 9.55722 -4.34893 -0.0 0.0 -0.0 8.62295 -5.26258 -16.6285 -24.5233 17.503 -60.597 0.261587 7.38357 -0.0168784 26.1772 -0.168602 3.31072 -0.248652 -4.12012 -0.0873894 0.0 0.0 0.0 29.9048 -18.9223 -3.01921 -22.064 0.265409 3.35461 -3.83936 19.6287 0.577332 3.25664 -0.0 -0.0 -0.0 0.0 -0.0 47.8893 35.8243 -12.9761 -36.6889 0.269664 -5.52916 15.656 -5.73415 2.17936 -3.59776 0.0 0.0 0.0 0.0 0.0 
795.524351155 617.467 -1833.30310146 -13.8455942403 5.9501062223 5.86064271697 6.75333 -0.125537 -1.42252 6.75446 -0.0347738 -1.42762 6.75383 0.0992229 -1.4246 6.75102 -0.126987 -1.42239 -21.4244 14.3024 6.32665 -22.3224 24.5588 12.4402 -0.0 0.0 -0.0 10.6033 15.7112 19.1789 -26.4927 -28.4262 33.2735 1.59618 -38.3306 0.554795 -58.4528 -5.09099 5.05041 -1.29369 9.55722 -4.34893 -0.0 0.0 -0.0 8.62295 -5.26258 -16.6285 -24.5233 17.503 -60.597 0.261587 7.38357 -0.0168784 26.1772 -0.168602 3.31072 -0.248652 -4.12012 -0.0873894 0.0 0.0 0.0 29.9048 -18.9223 -3.01921 -22.064 0.265409 3.35461 -3.83936 19.6287 0.577332 3.25664 -0.0 -0.0 -0.0 0.0 -0.0 47.8893 35.8243 -12.9761 -36.6889 0.269664 -5.52916 15.656 -5.73415 2.17936 -3.59776 0.0 0.0 0.0 0.0 0.0 
794.098115576 617.722 -1833.34914416 -14.8492994586 4.16707065772 4.8254010661 6.92188 -0.107809 -1.23733 6.92273 -0.0288617 -1.24168 6.92219 0.084032 -1.23917 6.92006 -0.112712 -1.2369 -21.4571 15.7119 8.25709 -22.435 26.3703 14.8951 -0.0 0.0 -0.0 10.5549 16.1052 19.0309 -19.8895 -24.2487 35.303 1.45305 -35.7441 0.468561 -62.6644 -5.61585 5.17637 -2.21952 7.95413 -11.1396 -0.0 0.0 -0.0 9.65635 -2.4738 -18.8219 -31.6224 18.2519 -58.8158 0.548612 15.204 -0.0732206 27.6105 -0.134005 3.49054 -0.331586 -7.12507 -0.811358 0.0 0.0 0.0 28.4533 -15.8208 -2.71042 -16.3881 0.321158 2.48585 -0.813241 28.7528 0.127139 9.40585 -0.0 -0.0 -0.0 0.0 -0.0 49.235 32.7185 -11.8087 -35.6362 0.212735 -5.37777 14.5291 -3.98949 2.03471 -4.64815 0.0 0.0 0.0 0.0 0.0 
794.209892657 617.722 -1833.53214189 -14.8485115706 4.12607969665 4.81450482532 6.92188 -0.107809 -1.23733 6.92273 -0.0288617 -1.24168 6.92219 0.084032 -1.23917 6.92006 -0.112712 -1.2369 -21.4571 15.7119 8.25709 -22.435 26.3703 14.8951 -0.0 0.0 -0.0 10.5549 16.1052 19.0309 -19.8895 -24.2487 35.303 1.45305 -35.7441 0.468561 -62.6644 -5.61585 5.17637 -2.21952 7.95413 -11.1396 -0.0 0.0 -0.0 9.65635 -2.4738 -18.8219 -31.6224 18.2519 -58.8158 0.548612 15.204 -0.0732206 27.6105 -0.134005 3.49054 -0.331586 -7.12507 -0.811358 0.0 0.0 0.0 28.4533 -15.8208 -2.71042 -16.3881 0.321158 2.48585 -0.813241 28.7528 0.127139 9.40585 -0.0 -0.0 -0.0 0.0 -0.0 49.235 32.7185 -11.8087 -35.6362 0.212735 -5.37777 14.5291 -3.98949 2.03471 -4.64815 0.0 0.0 0.0 0.0 0.0 
778.077961889 623.771 -1902.78881038 -13.4599879069 2.44114122549 3.17672848829 6.95304 0.217477 0.129738 6.95302 0.20878 0.143313 6.95356 0.194992 0.161574 6.95359 0.218062 0.128751 -16.5322 17.5597 5.90147 -17.4881 30.4047 12.1687 -0.0 0.0 -0.0 8.93305 21.2303 15.5864 -19.4734 -24.4243 40.2751 1.84136 -42.3655 0.713629 -61.2863 -5.44315 5.13942 -3.66867 18.6164 -14.7145 -0.0 0.0 -0.0 10.4774 -2.02274 -20.5173 -35.1701 17.997 -65.1408 0.540401 14.9868 -0.0710823 27.8604 -0.127513 3.5218 0.273869 -2.63928 -2.92385 0.0 0.0 0.0 22.192 -8.26015 -4.13358 -17.5535 0.316738 2.66461 6.69172 27.845 -1.02161 12.158 -0.0 -0.0 -0.0 0.0 -0.0 41.4615 16.1084 -8.73038 -26.5218 -0.161496 -4.03064 -0.799993 -9.49248 -0.117311 -5.11085 0.0 0.0 0.0 0.0 0.0 
